<?xml version="1.0" encoding="UTF-8" standalone="no"?>
<svg width="331px" height="56px" viewBox="0 0 331 56" version="1.1" xmlns="http://www.w3.org/2000/svg" xmlns:xlink="http://www.w3.org/1999/xlink" xmlns:sketch="http://www.bohemiancoding.com/sketch/ns">
    <title>map_mockup-v2.2 1</title>
    <description>Created with Sketch (http://www.bohemiancoding.com/sketch)</description>
    <defs>
        <rect id="path-1" x="0" y="0" width="331" height="91"></rect>
        <path id="path-3" d="M-225,103.1575 C-217.267325,103.318825 -211.740713,94.0959034 -204.449463,92.4676102 C-199.976333,91.4686641 -196.253978,95.5514167 -191.539068,94.8652617 C-186.870884,94.1859067 -182.375033,90.5670661 -177.921372,89.0291011 C-172.152728,87.0370384 -165.637956,86.7454144 -159.798946,85.4867226 C-145.40514,82.3839076 -117.214539,78.7178754 -102.235878,79.256724 C-93.3387935,79.5767914 -84.3127398,82.6732046 -75.3325727,81.4661121 C-71.0033264,80.8841853 -69.6018759,75.3751687 -65.4519262,74.6107333 C-57.4418851,73.1352555 -48.7735843,75.432524 -40.8322533,73.6304661 C-33.1128304,71.8787639 -28.478056,64.2947839 -21.1744677,61.8564395 C-15.825881,60.0707834 -8.93189883,62.5735838 -3.28062115,61.8780789 C3.78055208,61.0090578 11.9364571,56.7584008 18.8052762,54.8560763 C20.8743229,54.2830523 20.8157516,51.3610922 22.5832973,50.396185 C24.9404697,49.1093992 30.7790535,49.9233616 33.64781,49.2276545 C35.9614977,48.6665581 37.3356364,45.1580779 39.5024489,43.9973986 C43.0257696,42.1100892 49.5886034,41.4313403 53.5557385,40.6216439 C62.3921703,38.8181189 77.3565948,40.9518726 84.7761664,46.8538065 C86.3688262,48.1206954 88.0108079,52.6668965 89.6323898,53.2093139 C96.709309,55.5765359 105.781152,50.6013576 112.779238,53.7914152 C115.846122,55.1894455 129.126367,71.510811 131.169058,70.5035651 C134.574499,66.0597622 135.237209,58.8720265 139.93053,56.1674272 C141.654461,55.1739857 146.131841,57.1720089 147.298965,56.0008034 C148.962505,54.3314464 148.55848,50.4953877 150.516321,49.208179 C153.782545,46.7548644 155.12629,44.5083867 157.802813,41.9567982 C160.8573,39.0448883 167.279103,48.2530962 168.328224,50.2295612 C172.722064,58.5072179 178.523091,85.6818964 188.628619,87.9471284 C194.854511,89.3427104 196.008427,65.2482842 205.713813,63.8775644 C208.54449,63.4777798 207.97243,70.2952737 209.780793,70.8584521 C210.402851,71.0521798 211.017219,70.1107668 211.400253,69.7743155 C217.243311,64.6418572 228.677792,63.2344267 236.144997,63.9403188 C241.945917,64.4886932 242.854198,73.739765 248.557263,74.5263394 C250.74858,74.8285689 254.780218,69.3824313 256.840013,68.7118183 C261.297734,68.7118183 266.05561,72.8714169 269.897044,73.8598443 C271.287168,74.2175327 270.622718,68.1968631 270.770388,69.6293311 C270.828267,70.1907821 270.770996,72.3709968 271.516504,72.5268539 C281.780546,74.6726735 291.899256,72.3769161 302.883567,75.7359849 C307.524647,77.155255 310.175238,82.2407342 314.174502,83.1951045 C316.002076,83.6312301 317.107743,80.0971934 319.095418,81.1328646 C333.953734,88.8747372 347.605672,97.1082472 363.476384,100.803128 C367.137297,101.655429 370.774558,108.486073 375.662227,110.015043 C387.501514,113.718631 400.405045,113.073197 412.590658,115.474677 C414.293847,115.810333 417.737996,114.522725 417.737996,116.264517 C417.759561,117.160424 418.316571,133.013393 417.737996,133.019946 C403.719212,133.178725 401.750187,179.479131 387.826506,178.114403 C386.208309,177.955795 371.883953,178.262277 370.264746,178.114403 C335.854675,174.971907 306.016589,176.545234 271.516504,174.654254 C221.377817,171.90611 158.646628,168.662806 108.440552,171.25686 C79.7732854,172.738045 54.1861478,185.168982 25.63461,187.782911 C-3.52476306,190.452488 -35.3261129,192.734664 -54.0143554,192.972052 C-100.583277,193.563593 -127.478731,181.039187 -173.147092,192.972052 C-177.494851,194.108095 -215.866658,160.25076 -220.206312,157.087346 C-221.489014,156.152314 -222.654697,145.063543 -225,153.982085"></path>
        <path id="path-4" d="M377.757618,46.3532645 C370.681871,46.3532645 342.744585,44.4367091 337.621503,46.9968239 C321.943265,54.831577 314.300617,74.4963497 293.796318,74.1274779 C280.247728,73.883739 265.824971,67.5777377 254.323503,60.799988 C252.229887,59.5662324 247.694626,55.9798073 246.508191,53.7961683 C245.746463,52.3942044 246.530152,49.2761863 244.93393,49.2761863 C243.920389,49.2761863 237.822368,51.7359225 237.034629,50.4578387 C235.976522,48.7410883 231.296825,36.17713 230.815114,36.0111152 C229.675252,35.6182782 225.841129,45.7593905 224.223031,47.2249754 C216.428977,54.2844039 208.350051,60.0418559 200.111642,66.8115641 C195.640059,70.4859768 191.084296,73.1062951 185.891609,75.5179104 C185.628896,75.6399209 185.413516,76.5327902 185.413516,76.2432599 C185.413516,67.9715929 168.212806,74.4621054 165.139792,72.9264541 C163.430247,72.0721576 163.949619,66.2125258 162.940995,64.5515731 C161.250482,61.7677199 156.914081,61.4360177 154.815569,58.852091 C152.570035,56.0871335 153.5514,50.3227052 150.295222,47.9912199 C146.219411,45.0728621 133.720788,49.174236 128.404166,49.0071397 C120.006202,48.7431999 108.306174,41.146542 100.209605,42.9137735 C98.1978733,43.3528725 97.8789964,46.8869408 95.3166901,47.3691843 C87.8116472,48.7816846 81.6297308,49.0270631 74.9180589,52.8211436 C69.2495321,55.4208697 62.1258707,59.7854141 56.5911638,60.7181979 C52.2310169,61.4530289 50.3396381,57.1998491 45.9568267,57.5262296 C33.1269966,58.4816454 17.3246429,61.7724922 5.01312159,65.2360275 C2.32068165,65.9934774 -2.02488216,72.5556326 -5.10435825,74.2114204 C-12.8330971,78.3670465 -20.4699037,73.0628735 -29.0283862,77.1752372 C-29.3323714,77.3213025 -29.9609278,77.6604713 -30.3549864,77.4851788 C-42.2977538,72.172572 -55.1444411,65.5302566 -69.0998948,66.4800988 C-71.4215783,66.6381182 -69.4759364,73.7219273 -73.7860669,73.4645472 C-83.2181814,72.901307 -89.636236,61.8258787 -100.113481,61.568385 C-109.106485,61.3473687 -116.037413,64.3964131 -124.121498,64.9885047 C-130.032574,65.4214415 -137.023055,63.3015732 -142.674518,64.4288879 C-149.052844,65.701192 -153.113715,72.6177932 -160.732217,73.1546055 C-171.55714,73.9173477 -182.476872,65.2460914 -193.3416,67.2893908 C-195.301587,67.6580003 -196.173318,69.8795996 -198.172061,70.313474 C-220.46497,75.1526764 -230.00273,73.3085635 -227.652304,101.23876 C-227.097522,107.831248 -225.831166,114.362284 -225.722704,120.991082 C-225.682057,123.475241 -225.536251,126.035798 -226.054354,128.474881 C-226.247215,129.382815 -227.605423,131.189022 -226.676736,131.189022 C-220.186115,131.189022 -210.618352,136.253464 -204.079308,137.594482 C-187.142446,141.067872 -169.892855,141.525487 -152.645555,141.077021 C-99.780015,139.702407 -47.4247059,127.193857 5.59243238,125.11718 C87.6497199,121.903002 169.422691,128.964896 251.028538,135.812318 C277.276973,138.014784 303.54582,136.406061 329.784655,139.170019 C352.393883,141.55164 375.337462,143.406748 398.093796,142.816138 C400.996522,142.740802 417.410111,143.864479 419.405541,141.324544 C421.50753,138.648973 417.395303,125.443303 416.937548,122.566618 C414.310696,106.05861 413.799414,89.9495767 415.051019,73.2794431 C415.211279,71.1449388 421.407425,30.164297 416.64897,37.5866518"></path>
        <path id="path-5" d="M-218.467624,92.3615131 C-203.883939,92.4894059 -187.828852,83.1874359 -173.726817,79.8067386 C-163.575004,77.3730328 -153.168648,82.0574398 -142.813381,80.3847078 C-122.220866,77.0583078 -102.061563,68.3671319 -81.1932738,66.8195575 C-69.4257932,65.9468913 -59.4827537,72.0752832 -47.8331256,72.4065927 C-26.4061508,73.015965 -0.421135918,67.7118795 22.0984808,67.3975267 C44.8407602,67.0800657 67.1493808,71.7248018 89.9581353,69.2727155 C105.692287,67.5811941 129.011446,66.8651754 142.973827,59.9567089 C156.578768,53.2251008 178.343264,36.3715392 195.117231,40.7017734 C209.920527,44.5232747 218.498847,57.7863529 233.868331,62.3477887 C237.2989,63.365931 240.756652,60.8008034 244.068709,61.7698196 C250.059256,63.5224876 255.058953,67.1423024 260.924318,69.1485592 C267.146044,71.2767096 273.191957,70.5189376 279.334967,71.8286236 C286.249899,73.3028827 292.43244,77.6098474 299.281273,79.3935977 C312.862978,82.9308968 327.437156,83.2510222 340.601852,88.3414165 C347.260035,91.2283219 351.815789,94.6144742 358.37067,96.0498126 C369.744361,98.5403379 388.831001,93.662712 397.535298,104.111412 C402.170079,109.675035 403.173404,124.501448 404.728977,131.342322 C405.566658,135.02615 406.39668,138.710787 407.156306,142.411502 C407.47685,143.973119 410.086633,147.007427 408.483044,147.007427 C387.841655,147.007427 367.427383,145.336107 346.656173,146.388786 C330.543053,147.205394 314.443561,147.943899 298.305603,147.996396 C246.046015,148.166398 194.188312,142.269875 141.998157,141.255563 C86.1444726,140.170051 30.4550759,145.363881 -25.401339,143.481815 C-81.4878663,141.591995 -137.645713,142.842086 -193.692507,140.101766 C-208.748044,139.365649 -223.60291,139.141345 -238.579772,137.670014 C-238.739334,137.654339 -242,137.425729 -242,137.359623 C-242,122.789642 -236.771182,106.036555 -235.28231,91.370403 C-235.004531,88.6341382 -232.582716,68.445443 -235.034623,69.9534347"></path>
    </defs>
    <g id="Page-1" stroke="none" stroke-width="1" fill="none" fill-rule="evenodd" sketch:type="MSPage">
        <g id="landing-card" sketch:type="MSArtboardGroup" transform="translate(-484.000000, -362.000000)">
            <g id="Social-Data-Header" sketch:type="MSLayerGroup" transform="translate(459.000000, 286.000000)">
                <g id="Content" transform="translate(1.000000, 29.000000)">
                    <g id="Graph" transform="translate(24.000000, 12.000000)">
                        <mask id="mask-2" sketch:name="Clipping Path" fill="white">
                            <use xlink:href="#path-1"></use>
                        </mask>
                        <use id="Clipping-Path" sketch:type="MSShapeGroup" xlink:href="#path-1"></use>
                        <path d="M-230,74.6225942 C-226.309829,74.520008 -215.974586,76.6685389 -214.81345,76.4238517 C-212.359516,75.9067319 -210.95504,74.1582196 -208.229087,74.3324155 C-208.069073,74.3426409 -207.902516,74.3393055 -207.752147,74.3947502 C-202.687956,76.2620343 -199.804867,82.9004818 -193.519477,81.8039799 C-183.555026,80.0656567 -176.382352,70.2285677 -166.055496,68.2472605 C-156.085647,66.3344484 -146.453754,69.2537955 -136.452839,68.4536098 C-129.389577,67.8884695 -122.694979,65.1870614 -115.968153,64.4792362 C-112.159469,64.0784703 -108.11128,65.5555514 -104.396421,64.728575 C-98.4846938,63.4125467 -92.6019259,59.2732349 -86.7798504,58.4155759 C-82.989171,57.857165 -79.8258247,59.9864276 -76.4554999,57.3386905 C-73.0072936,54.6297695 -69.914754,41.0005115 -66.3793309,40.757664 C-63.4938237,40.5594592 -60.7489481,52.4814806 -55.5348784,52.9086288 C-48.4817251,53.486439 -45.057158,42.7240773 -38.0650587,41.9807136 C-34.9417256,41.648657 -34.3757743,43.5124322 -31.8324659,44.5256883 C-30.7245726,44.9670739 -29.5258996,41.8183986 -28.8607621,42.1462229 C-25.890935,43.6099526 -26.8961194,49.2245325 -22.0044784,50.1551553 C-19.1000058,50.7077242 -14.7300579,47.223805 -11.9908943,48.459222 C-11.0653532,48.8766593 -11.7442655,52.1425108 -11.078018,52.2874315 C-9.458419,52.6397229 -6.47320663,48.8740055 -4.24331523,48.7687459 C-1.808278,48.6538027 -0.446010742,52.7137839 2.71655733,51.6662341 C7.27557222,50.1561337 11.7303132,45.0390315 16.3449589,44.1946697 C21.0036644,43.342246 34.3964232,45.9186691 35.1873302,45.6842537 C38.6448033,44.6594997 44.3531122,42.3509329 47.9438594,42.7867655 C50.3604361,43.0800814 51.678525,45.7314638 54.3404679,45.5617338 C56.1829179,45.444256 57.2488491,42.4921689 59.1185013,41.9183789 C66.1957742,39.7463876 76.6934212,39.9378191 84.2776313,40.0762814 C86.9260485,40.1246327 96.1149147,41.760985 97.4895196,42.1655682 C99.203432,42.6700186 99.8138704,45.3157023 101.624439,45.7057484 C103.384414,46.0848952 104.940558,43.7348002 106.652812,45.0222163 C108.364203,46.3089834 122.846364,61.5314636 123.043582,61.5602533 C144.782367,64.7336577 167.284456,45.4765531 184.100548,47.6295258 C188.671067,48.2146917 199.14005,58.3544527 202.755164,60.7950413 C205.571907,62.6966439 208.105834,58.0680565 210.794087,59.4709666 C215.326525,61.8362959 213.533721,70.901554 219.167515,73.4016942 C222.02013,74.667615 225.356427,73.1830449 228.266065,73.9799021 C231.449465,74.8517345 233.155614,78.3536293 236.348149,79.2375105 C240.017199,80.2533187 243.742843,78.2246857 247.42136,78.8849971 C263.546745,81.7795801 282.414175,84.5293643 298.609335,80.1273918 C306.232114,78.05546 313.39465,72.0493555 320.859346,70.2742125 C323.27139,69.7006159 325.439367,71.2917478 327.901226,70.5643912 C331.966179,69.6133977 353.514718,78.4885518 357.775805,80.8947533 C376.540594,91.4910794 391.361635,78.7517342 390.99328,108.962558 C390.944283,112.981101 390.307118,116.943209 389.663891,120.905024 C388.694672,126.874706 387.481308,132.808986 386.340417,138.74779 C384.022003,150.81607 382.858614,163.561913 379.361121,175.364044 C379.272707,175.662393 379.068879,176.908202 378.61226,176.999793 C378.357353,177.050923 370.075141,167.630715 368.849016,166.877929 C360.516082,161.761884 350.490908,159.253732 341.009526,157.293434 C303.700528,149.579712 264.243979,148.958579 226.293561,148.641809 C165.351998,148.133135 104.304077,149.928069 43.4765924,153.690919 C-5.43921711,156.716901 -54.2373883,161.172298 -103.276367,161.598826 C-135.986363,161.883329 -168.429441,163.035352 -200.190164,154.58295 C-204.946631,153.317123 -210.079395,152.387267 -215.022786,152.285164 C-216.731435,152.249873 -217.760948,156.291214 -219.155547,155.307322 C-228.364628,148.810302 -225.189204,100.357032 -225.450725,90.0644006 C-225.601928,84.113542 -227.539519,77.8397594 -227.196628,71.9314554 C-227.162672,71.3463622 -226.117048,69.6336699 -227.196628,69.6336699" id="Path" stroke="#CC0000" fill-opacity="0.243997013" fill="#FFFFFF" sketch:type="MSShapeGroup" mask="url(#mask-2)"></path>
                        <g id="Path" opacity="0.4">
                            <use stroke="none" fill-opacity="0.15" fill="#FFFFFF" fill-rule="evenodd" sketch:type="MSShapeGroup" mask="url(#mask-2)" xlink:href="#path-3"></use>
                            <use stroke="#2E6E9E" stroke-width="1" fill="none" xlink:href="#path-3"></use>
                        </g>
                        <g id="Group" mask="url(#mask-2)" transform="translate(48.000000, 38.000000)" stroke="#FFFFFF" stroke-width="2" fill="#2E6E9E" sketch:type="MSShapeGroup">
                            <path d="M112,4 C113.10457,4 114,3.10456955 114,2 C114,0.895430446 113.10457,0 112,0 C110.89543,0 110,0.895430446 110,2 C110,3.10456955 110.89543,4 112,4 Z" id="Oval-2"></path>
                            <path d="M145,49 C146.10457,49 147,48.1045696 147,47 C147,45.8954304 146.10457,45 145,45 C143.89543,45 143,45.8954304 143,47 C143,48.1045696 143.89543,49 145,49 Z" id="Oval-2"></path>
                            <path d="M190,15 C191.10457,15 192,14.1045696 192,13 C192,11.8954304 191.10457,11 190,11 C188.89543,11 188,11.8954304 188,13 C188,14.1045696 188.89543,15 190,15 Z" id="Oval-2"></path>
                            <path d="M250,43 C251.10457,43 252,42.1045696 252,41 C252,39.8954304 251.10457,39 250,39 C248.89543,39 248,39.8954304 248,41 C248,42.1045696 248.89543,43 250,43 Z" id="Oval-2"></path>
                            <path d="M83,34 C84.1045696,34 85,33.1045696 85,32 C85,30.8954304 84.1045696,30 83,30 C81.8954304,30 81,30.8954304 81,32 C81,33.1045696 81.8954304,34 83,34 Z" id="Oval-2"></path>
                            <path d="M2,22 C3.10456955,22 4,21.1045696 4,20 C4,18.8954304 3.10456955,18 2,18 C0.895430446,18 0,18.8954304 0,20 C0,21.1045696 0.895430446,22 2,22 Z" id="Oval-2"></path>
                        </g>
                        <g id="Path" opacity="0.4">
                            <use stroke="none" fill-opacity="0.15" fill="#FFFFFF" fill-rule="evenodd" sketch:type="MSShapeGroup" mask="url(#mask-2)" xlink:href="#path-4"></use>
                            <use stroke="#8CA6B7" stroke-width="1" fill="none" xlink:href="#path-4"></use>
                        </g>
                        <g id="Path" opacity="0.4">
                            <use stroke="none" fill-opacity="0.15" fill="#FFFFFF" fill-rule="evenodd" sketch:type="MSShapeGroup" mask="url(#mask-2)" xlink:href="#path-5"></use>
                            <use stroke="#2E6E9E" stroke-width="1" fill="none" xlink:href="#path-5"></use>
                        </g>
                    </g>
                </g>
            </g>
        </g>
    </g>
</svg>